<?xml version="1.0" encoding="UTF-8"?>
<svg xmlns="http://www.w3.org/2000/svg" version="1.1" viewBox="0 0 472 100" height="100" width="472">
  <style>
     :root {
        color: #000000;
     }
     @media (prefers-color-scheme: dark) {
        :root {
            color: #ffffff;
        }
     }
  </style>
  <g fill="currentColor">
    <path d="M115.346,22.208h21.646c13.518,0,24.578,4.821,24.578,19.946,0,14.746-11.249,21.174-24.199,21.174h-7.279v20.418h-14.746V22.208ZM136.52,51.702c7.278,0,10.682-3.403,10.682-9.547s-3.876-8.319-11.06-8.319h-6.05v17.866h6.428Z"/>
    <path d="M166.301,60.209c0-15.597,11.06-24.577,22.97-24.577,12.005,0,23.065,8.98,23.065,24.577s-11.06,24.672-23.065,24.672c-11.911,0-22.97-9.075-22.97-24.672ZM197.306,60.209c0-7.751-2.553-12.856-8.035-12.856s-8.035,5.104-8.035,12.856c0,7.846,2.552,12.856,8.035,12.856s8.035-5.01,8.035-12.856Z"/>
    <path d="M221.602,36.766h11.911l1.04,8.129h.378c3.403-6.333,8.602-9.264,13.329-9.264,2.741,0,4.348.284,5.671.945l-2.741,12.383c-1.701-.378-2.741-.567-4.821-.567-3.498,0-7.751,2.269-10.209,8.507v26.846h-14.558v-46.98Z"/>
    <path d="M261.78,66.354v-18.149h-6.333v-10.965l7.185-.473,1.701-14.368h12.1v14.368h11.06v11.438h-11.06v17.96c0,5.293,2.458,7.278,5.956,7.278,1.512,0,3.119-.189,4.348-.662l2.269,10.209c-2.458.945-6.05,1.891-10.682,1.891-11.721,0-16.542-7.468-16.542-18.527Z"/>
    <path d="M297.325,48.204h-6.239v-10.965l6.239-.378v-1.985c0-9.925,4.632-18.338,17.771-18.338,4.065,0,7.468.851,9.547,1.702l-2.741,10.398c-1.607-.473-3.119-.662-4.726-.662-3.214,0-5.199,1.796-5.199,6.428v2.363h8.318v11.438h-8.318v35.542h-14.652v-35.542Z"/>
    <path d="M324.079,60.209c0-15.597,11.06-24.577,22.97-24.577,12.005,0,23.065,8.98,23.065,24.577s-11.06,24.672-23.065,24.672c-11.911,0-22.97-9.075-22.97-24.672ZM355.084,60.209c0-7.751-2.552-12.856-8.035-12.856s-8.035,5.104-8.035,12.856c0,7.846,2.552,12.856,8.035,12.856s8.035-5.01,8.035-12.856Z"/>
    <path d="M375.381,68.527V17.671h14.558v51.423c0,3.025,1.512,3.97,2.646,3.97.567,0,.945,0,1.702-.189l1.702,10.776c-1.607.662-4.065,1.229-7.279,1.229-10.02,0-13.329-6.522-13.329-16.354Z"/>
    <path d="M401.85,22.587c0-4.538,3.403-7.468,8.224-7.468s8.224,2.93,8.224,7.468c0,4.632-3.403,7.562-8.224,7.562s-8.224-2.93-8.224-7.562ZM402.795,36.766h14.558v46.98h-14.558v-46.98Z"/>
    <path d="M424.619,60.209c0-15.597,11.06-24.577,22.97-24.577,12.005,0,23.065,8.98,23.065,24.577s-11.06,24.672-23.065,24.672c-11.911,0-22.97-9.075-22.97-24.672ZM455.624,60.209c0-7.751-2.552-12.856-8.035-12.856s-8.035,5.104-8.035,12.856c0,7.846,2.552,12.856,8.035,12.856s8.035-5.01,8.035-12.856Z"/>
    <path d="M68.025,65.391c-1.205.365-2.459.544-3.718.531-11.066,0-27.554-39.04-27.554-52.009,0-4.803,1.129-6.396,2.722-7.746-13.655,1.593-30.055,6.64-35.411,12.969-1.336,2.193-1.977,4.739-1.837,7.303,0,20.273,21.645,66.395,36.916,66.395,7.06,0,18.967-11.619,28.771-27.333"/>
    <path d="M60.899,4.795c14.12,0,28.262,2.213,28.262,10.247,0,16.178-10.269,35.765-15.492,35.765-9.34,0-20.959-25.96-20.959-38.952,0-5.931,2.213-7.06,8.211-7.06"/>
  </g>
</svg>
