<?xml version="1.0" encoding="UTF-8"?>
<svg xmlns="http://www.w3.org/2000/svg" version="1.1" viewBox="0 0 512 512">
  <g fill="currentColor">
  <path d="M-.139,457.465c.474-4.692,2.959-13.275,4.476-18.021,11.142-34.866,45.466-59.637,81.463-62.99l-14.506-3.967c-70.681-28.538-34.703-135.176,39.254-113.279,54.29,16.074,56.165,93.385,3.761,113.279l-14.506,3.967c22.869,2.471,43.327,11.609,60.318,26.938,21.409-25.802,52.353-45.009,86.577-45.932.223-2.604.143-1.661-1.499-1.964-93.725-17.263-89.526-142.519-3.675-157.713,72.556-12.841,122.936,71.48,76.106,129.154-14.033,17.283-29.954,24.602-51.435,28.558-1.641.302-1.722-.641-1.499,1.964,34.22.938,65.275,20.009,86.58,45.929,16.991-15.327,37.447-24.465,60.315-26.935l-14.506-3.967c-52.404-19.894-50.53-97.206,3.761-113.279,73.957-21.897,109.935,84.741,39.254,113.279l-14.506,3.967c35.997,3.353,70.321,28.124,81.463,62.99,1.517,4.746,4.002,13.329,4.476,18.021v32c-2.865,3.35-5.381,7.397-10.446,7.047H10.307c-5.065.35-7.581-3.697-10.446-7.047.754-10.276-1.02-21.905,0-32ZM249.496,216.758c-76.903,7.63-67.317,125.201,10.684,119.691,78.859-5.57,69.766-127.674-10.684-119.691ZM88.581,276.748c-51.304,5.596-44.177,82.88,6.703,79.7,53.293-3.331,46.583-85.512-6.703-79.7ZM414.373,276.748c-51.304,5.596-44.177,82.88,6.703,79.7,53.293-3.331,46.583-85.512-6.703-79.7ZM355.635,476.465c-.086-39.918-24.109-76.211-60.604-91.858-66.3-28.425-138.88,20.729-139.269,91.858h199.873ZM135.774,476.465c-.007-19.443,5.464-37.581,12.86-55.292-30.959-35.423-89.995-32.047-116.619,6.967-4.501,6.596-12.167,23.086-12.167,30.825v17.5h115.926ZM491.548,476.465v-17.5c0-7.739-7.666-24.229-12.167-30.825-26.623-39.014-85.66-42.389-116.619-6.967,7.396,17.711,12.867,35.849,12.86,55.292h115.926Z"/>
  <path d="M227.456,61.205l19.806-40.682c5.072-6.258,13.25-5.112,17.261,1.611l19.211,38.777c1.125.75,2.421.973,3.701,1.297,11.871,3.002,27.863,2.378,39.476,5.499,8.114,2.181,10.864,10.514,5.595,17.115l-31.287,30.592,7.482,43.612c-4.76,26.408-39.557-7.324-53.502-10.189l-38.445,20.155c-7.822,2.026-13.856-.324-14.671-8.827l7.536-45.047-31.871-31.151c-4.533-6.999-2.04-13.796,5.959-16.039,7.01-1.965,41.214-4.621,43.75-6.721ZM303.668,84.474c-10.53-2.538-29.224-.156-35.81-9.677l-13.146-25.325c-3.693,6.159-9.935,25.948-15.017,29.479-5.127,3.563-30.401,4.029-31.961,5.519-.379,1.666.535,2.025,1.513,2.976,5.226,5.081,19.982,16.19,21.072,23,.826,5.158-5.776,29.421-4.592,31.018,7.876-2.487,21.814-14.097,29.471-14.097,7.37,0,21.986,11.377,29.471,14.097,1.448-1.971-5.444-26.681-3.74-33.259,1.669-6.441,19.123-16.764,22.738-23.731Z"/>
  <path d="M107.053,138.205c9.877,4.226,40.333-.523,37.498,16.508-1.14,6.851-18.6,19.717-23.64,25.459.257,9.52,4.558,20.637,4.893,29.845.227,6.245-4.69,12.037-11.25,11.264-6.667-.785-25.429-14.997-30.083-14.593-7.829,2.397-21.114,13.373-28.397,14.608-3.931.667-10.08-2.333-11.026-6.544-2.048-9.106,3.635-24.276,4.382-33.832l-23.065-23.473c-5.579-20.971,25.039-14.583,37.244-19.186,3.549-6.937,10.156-26.424,16.248-30.248,14.548-9.13,21.325,22.056,27.196,30.191ZM112.789,159.475c-5.257-1.183-13.502-.675-17.956-3.543-3.867-2.491-7.147-12.105-9.039-16.465-1.244-.941-7.603,14.306-9.614,15.866-4.386,3.401-13.92,3.301-19.356,4.142,2.248,4.339,11.217,9.688,12.543,13.933,1.99,6.373-1.957,12.683-1.041,19.066,7.232-3.078,11.929-8.78,20.511-6.535,2.329.61,12.859,7.393,13.957,6.515-.704-4.543-3.592-12.979-2.818-17.23,1.149-6.312,9.716-10.465,12.811-15.75Z"/>
  <path d="M446.837,138.205c9.877,4.226,40.333-.523,37.498,16.508-1.14,6.851-18.6,19.717-23.64,25.459.257,9.52,4.558,20.637,4.893,29.845.227,6.245-4.69,12.037-11.25,11.264-6.667-.785-25.429-14.997-30.083-14.593-7.829,2.397-21.114,13.373-28.397,14.608-3.931.667-10.08-2.333-11.026-6.544-2.048-9.106,3.635-24.276,4.382-33.832l-23.065-23.473c-5.579-20.971,25.039-14.583,37.244-19.186,3.549-6.937,10.156-26.424,16.248-30.248,14.548-9.13,21.325,22.056,27.196,30.191ZM452.573,159.475c-5.257-1.183-13.502-.675-17.956-3.543-3.867-2.491-7.147-12.105-9.039-16.465-1.244-.941-7.603,14.306-9.614,15.866-4.386,3.401-13.92,3.301-19.356,4.142,2.248,4.339,11.217,9.688,12.543,13.933,1.99,6.373-1.957,12.683-1.041,19.066,7.232-3.078,11.929-8.78,20.511-6.535,2.329.61,12.859,7.393,13.957,6.515-.704-4.543-3.592-12.979-2.818-17.23,1.149-6.312,9.716-10.465,12.811-15.75Z"/>
  <path d="M290.387,408.682c11.288-2.582,27.741,16.562,33.073,25.477,3.435,5.742,8.701,14.024,2.112,19.724-11.836,10.238-18.361-9.454-24.391-16.431-3.96-4.582-15.917-12.599-16.559-17.441-.61-4.599.636-10.156,5.765-11.329Z"/>
  <path d="M253.423,396.658c9.631-2.132,17.485,10.977,7.773,17.807-13.104,9.215-22.503-14.547-7.773-17.807Z"/>
  </g>
</svg>
