<?xml version="1.0" encoding="UTF-8"?>
<svg xmlns="http://www.w3.org/2000/svg" version="1.1" viewBox="0 0 512 512">
  <g fill="currentColor">
  <path d="M0,157.311c10.029-15.517,23.758-24.944,42.595-26.36,27.77-2.087,47.688,2.414,75.275-8.944,31.815-13.099,63.026-55.925,80.227-85.054,10.325-17.486,17.832-46.143,45.424-32.1,21.121,10.749,9.707,32.982,2.672,48.614-18.884,41.963-40.797,70.574-73.528,102.28-14.094,13.652-26.682,18.359-28.477,41.004-2.089,26.356.377,57.305.081,84.301-.601,54.879-.997,110.342-2.192,165.194-.27,12.392,2.319,38.286-2.197,48.335-8.797,19.573-36.403,20.545-51.788,8.196-15.318,14.944-50.565,8.585-53.377-14.352-1.334-10.886-.828-29.229-1.078-41.032-.892-42.257.776-84.647.043-126.902-9.135,3.674-21.001,2.372-27.362-5.797-6.183-7.94-4.689-24.845-5.224-34.822l-1.096-2.548v-120.013ZM132.646,274.166c-.958-7.893.85-16.104,1.096-23.643.602-18.391-1.607-38.968-.081-56.93,2.394-28.183,33.617-45.902,51.65-65.204,21.267-22.764,40.179-54.514,52.795-83.009,1.84-4.156,6.76-14.368,7.135-18.209,1.26-12.906-16.646-20.234-24.629-9.812-15.03,30.702-34.028,59.727-57.409,84.711-36.929,39.461-67.744,38.758-118.41,39.413-21.96.284-39.639,18.654-39.596,40.568l7.687,121.874c1.56,8.733,15.127,10.49,19.139,2.79,3.597-6.903.633-14.597.549-21.458-.052-4.203,1.201-7.755,1.164-11.565-.232-23.9-3.397-52.398-1.162-75.911.798-8.396,9.59-7.182,10.559-2.015l1.083,78.4h88.43ZM130.54,285.746H44.215c2.347,26.309.447,53.05,1.009,79.526.504,23.73,2.349,47.772,3.245,71.5.578,15.289-.705,33.508,1.008,48.471,1.296,11.323,12.836,17.246,23.169,12.641,8.319-3.708,7.5-11.799,10.46-19.018l1.032-161.084c2.97-2.972,5.586-2.999,8.584,0l1.219,161.949c2.685,11.031,6.359,21.83,20.216,19.652,18.185-2.858,12.748-27.452,13.181-40.503.943-28.44,1.618-56.713,2.105-85.272.042-2.49,1.102-4.793,1.14-7.282l-.043-80.578Z"/>
  <path d="M229.756,265.493c-1.098-1.097-1.503-3.722-1.123-5.268.64-2.605,8.787-12.795,10.885-16.57,4.533-8.153,7.94-17.027,10.956-25.845-53.699-87.248,35.435-154.228,119.608-148.974,61.691,3.851,130.466,53.104,110.49,122.158-21.394,73.957-131.915,94.342-192.662,59.001-8.86,4.87-17.88,9.477-27.658,12.29-5.407,1.555-26.775,6.926-30.497,3.208ZM246.347,254.158c1.172,1.085,17.566-4.422,20.274-5.508,4.762-1.909,17.199-9.965,20.358-10.269,3.722-.359,20.79,9.1,26.729,11.056,53.028,17.463,135.631.353,155.582-58.145,24.283-71.203-58.538-115.481-119.242-111.873-59.798,3.554-129.364,53.849-97.9,119.987,1.876,3.944,10.078,14.482,9.973,17.267-2.438,7.545-4.981,15.179-8.227,22.409-.856,1.907-8.165,14.504-7.547,15.076Z"/>
  <path d="M232.417,382.896c2.55-.269,5.089-.941,7.57.276,4.2,2.244,23.335,21.449,25.804,21.515,4.668.126,22.43-20.909,28.482-22.074,7.914-1.524,27.151,6.427,33.633,11.59,28.245,22.498,20.776,85.781-22.045,89.496-20.567,1.785-62.812,1.973-83.195-.048-17.621-1.747-31.598-15.211-34.989-32.386-6.935-35.12,7.055-64.396,44.741-68.369ZM311.863,429.172c2.519-2.502,8.372-1.908,9.194,2.408,1.567,8.236-.998,21.351-9.38,25.301-13.944,6.57-57.517-1.358-64.88,4.593-4.436,3.586-1.143,11.337,4.345,11.597,42.377-1.354,87.565,12.878,81.515-47.827-1.982-19.883-17.119-29.708-35.823-31.516-5.684,3.238-25.444,24.021-30.128,24.454-4.202.388-25.912-21.137-30.915-24.557-12.452,1.087-27.647,6.132-33.879,17.708-6.308,11.714-6.86,38.055.809,49.102,7.167,10.324,20.028,13.724,32.038,12.694-1.465-4.957-.742-8.728.007-13.675-13.272.223-23.978-3.775-25.31-18.384-.704-7.712-.859-16.725,9.266-11.897,3.058,6.19-1.304,13.717,5.53,18.154l82.415.333c5.444-1.614,2.392-15.7,5.197-18.487Z"/>
  <path d="M400.873,382.913c2.556-.235,5.077-.976,7.578.233l25.806,22.595c9.448-7.516,18.231-17.145,28.509-23.111,25.505,1.381,46.769,15.553,48.905,42.566,2.147,27.14-5.755,55.782-37.372,58.503-20.58,1.771-62.822,1.986-83.194-.048-34.874-3.482-43.208-43.781-32.919-71.85,6.34-17.297,24.932-27.258,42.688-28.888ZM487.17,429.172c4.982,4.96-.944,23.362-6.772,26.939-10.717,6.577-43.578,2.107-57.759,3.301-5.502.463-10.724,1.269-11.045,7.891l5.235,5.361c28.03-1.797,80.182,12.742,84.266-28.49,2.74-27.66-6.212-47.518-35.827-50.416-5.375,2.881-26.856,24.739-30.836,24.397-5.942-.51-27.809-24.714-31.518-24.781-22.249,3.766-35.778,12.202-37.597,36.089-2.011,26.404,7.882,45.399,36.826,43.665-1.743-4.808-.971-8.848,0-13.673-8.599.124-19.029-1.302-23.367-9.797-2.703-5.293-5.968-23.236,3.837-21.827s-1.872,18.753,12.642,20.086c24.551,2.256,52.81-1.572,77.747-.305,8.022-1.504.652-19.451,9.652-19.807,1.176-.047,3.696.552,4.515,1.367Z"/>
  <path d="M427.181,301.831c56.293-6.59,62.042,79.408,7.047,81.816-52.148,2.283-58.273-75.819-7.047-81.816ZM429.3,312.351c-37.607,3.571-34.636,60.546,2.851,60.546,41.26,0,38.906-64.512-2.851-60.546Z"/>
  <path d="M236.187,371.699c-40.097-40.099,24.821-99.889,61.226-54.383,31.768,39.71-25.42,90.19-61.226,54.383ZM261.878,312.338c-44.432,5.414-28.502,74.607,14.98,58.14,31.509-11.933,19.573-62.35-14.98-58.14Z"/>
  <path d="M76.618,31.276c54.713-6.378,58.775,75.376,7.029,77.623-48.903,2.123-55.063-72.023-7.029-77.623ZM78.711,41.771c-35.862,4.228-32.123,61.126,9.101,55.442,32.482-4.479,27.485-59.755-9.101-55.442Z"/>
  <path d="M299.505,161.522h118.96c3.435,0,3.435,10.527,0,10.527h-118.96c-2.891,0-4.091-9.098,0-10.527Z"/>
  <path d="M419.792,133.348c1.889,1.892,1.996,7.364-.798,8.702l-120.637-.428c-3.28-4.016-1.307-9.912,4.289-9.577,36.144,2.274,75.95-3.024,111.654-.043,1.634.136,4.329.181,5.492,1.346Z"/>
  <path d="M299.717,192.264l83.031.761c4.232,4.044,1.42,9.5-4.27,9.572-23.975-2.069-52.408,2.707-75.834.001-1.962-.227-4.885-.727-5.605-2.827-.653-2.639-.449-6.59,2.677-7.508Z"/>
  </g>
</svg>
