<?xml version="1.0" encoding="UTF-8"?>
<svg xmlns="http://www.w3.org/2000/svg" version="1.1" viewBox="0 0 512 512">
  <g fill="currentColor">
  <path d="M89.993.003c8.222,1.519,20.998,12.89,20.998,21.498v97.492h220.482L443.44,6.979,455.962.003h9.999c3.578,1.747,7.165,2.537,10.498,5.001,5.754,4.254,26.318,24.845,30.498,30.497,7.385,9.987,6.441,23.248-1.487,32.508l-50.508,50.984h31.497c.429,0,6.708,1.217,7.536,1.464,9.99,2.98,17.131,12.737,18.004,22.992l-.007,344.049c-.876,13.096-11.416,23.625-24.498,24.498l-422.985-.051c-28.535-2.757-53.211-21.947-61.527-49.463-1.16-3.839-1.563-7.82-2.983-11.515V59.998C4.216,30.336,29.623,3.263,59.995.003h29.998ZM16.999,397.971c8.747-8.226,18.524-15.674,30.214-19.282,14.037-4.332,28.112-3.014,42.545-4.451,2.677-1.245,4.329-5.89,4.286-8.713l-.262-341.812c-2.103-9.363-22.549-7.298-30.157-6.582-21.164,1.993-46.625,22.922-46.625,45.367v335.472ZM459.715,17.192c-3.25.625-17.03,13.164-16.679,15.171l37.287,36.562c4.724-5.298,16.767-12.918,14.206-20.972-5.129-5.112-26.227-29.736-31.302-30.781-1.302-.268-2.222-.229-3.512.019ZM429.665,45.106c-1.186.312-11.816,11.181-11.628,12.255l37.287,36.562c2.187-2.572,12.309-10.265,11.53-13.226-1.168-4.436-30.273-28.348-34.345-34.757-.813-.829-1.692-1.137-2.844-.834ZM405.467,69.016l-92.42,92.612,36.562,37.287,93.337-92.42-37.479-37.479ZM312.974,136.992H110.991v234.481c0,.386-2.352,6.248-2.819,7.18-10.856,21.698-38.596,10.229-57.165,16.829-53.065,18.862-40.675,95.741,17.439,99.528h417.061c3.878.239,6.833-2.123,8.694-5.305l.094-347.549c-1.284-4.15-3.75-4.851-7.787-5.212-15.86-1.416-34.429.723-50.525.566l-82,81.987c-10.195,8.157-30.483,9.825-43.466,10.529-41.928,2.274-85.933-1.744-128.082-.093l-3.449,1.551v92.492h204.983v-44.496c0-.957,3.443-4.739,4.625-5.367,5.954-3.163,11.622,1.198,12.397,7.344l-.02,130.015c-1.036,9.674-9.269,15.009-18.466,15.531l-168.021-.036c-6.708-.294-11.639-6.128-8.745-12.75.552-1.262,3.728-4.248,4.744-4.248h62.495v-68.994h-93.992v122.49c0,4.594-9.878,7.445-13.967,3.968-.546-.464-3.032-4.677-3.032-4.968v-232.481h-28.498c-3.311,0-5.906-6.121-5.48-9.412.393-3.038,4.616-7.587,7.48-7.587h146.488c1.003-13.54.266-34.535,5.511-46.985,4.685-11.122,18.394-19.352,25.487-29.009ZM335.972,209.976l-33.987-33.987c.601,6.352-5.569,31.967-1.773,35.76,11.222,3.2,24.105-1.566,35.76-1.772ZM383.968,340.975h-93.992v68.994h93.992v-68.994Z"/>
  </g>
</svg>
