<?xml version="1.0" encoding="UTF-8"?>
<svg xmlns="http://www.w3.org/2000/svg" version="1.1" viewBox="0 0 512 512">
  <g fill="currentColor">
  <path d="M399.22,0c13.346,3.516,23.529,13.251,24.942,27.509,3.465,34.968-2.57,75.436.008,110.989-.775,12.765-18.032,13.833-19.869.91l-.092-108.908c-.264-4.852-3.258-8.837-7.914-10.071l-363.897-.469c-5.193-.041-9.651,2.885-11.01,7.969l-.468,452.608c-.043,6.78,4.771,11.549,11.478,11.5l363.093-.275c4.788-.96,7.94-4.472,8.628-9.355,3.22-22.823-2.411-52.147.327-75.672,2.56-11.35,17.997-10.826,19.634.854-1.817,24.657,2.795,53.664-.017,77.802-1.6,13.734-11.986,23.248-24.844,26.608H25.949c-13.498-3.528-23.34-13.235-24.942-27.509l-.052-455.033C2.084,13.826,11.259,4.065,25.949,0h373.271Z"/>
  <path d="M512,161v12c-2.124,6.477-4.362,12.747-7.812,18.672l-123.929,214.829-68.827,51.046c-11.339,1.648-13.303-4.268-13.058-14.1.593-23.802,7.243-49.764,8.126-73.85,38.028-69.236,76.829-139.289,117.5-207.27,5.94-9.929,11.891-22.78,21.401-29.557,21.819-15.551,51.61-7.414,62.8,16.536l3.799,11.693ZM464.831,145.238c-12.743,2.413-17.039,18.026-23.662,27.271l38.242,21.409c1.051-.313,10.348-16.814,11.107-18.942,6.163-17.267-7.718-33.141-25.688-29.738ZM431.649,190.024l-101.278,174.48,37.416,22.39,101.159-174.419-37.297-22.451ZM353.304,402.982l-1.03-2.444-26.897-15.536-4.993,40.997,32.92-23.017Z"/>
  <path d="M25.949,0C11.259,4.065,2.084,13.826.955,29.457l.052,455.033c1.602,14.274,11.443,23.982,24.942,27.509H0V0h25.949Z" fill="#fff"/>
  <path d="M203.396,54.293c68.382-6.648,120.128,62.251,94.203,126.387-25.883,64.033-110.756,77.237-155.389,24.332-47.347-56.123-11.249-143.676,61.186-150.719ZM271.452,187.994c33.476-49.566-2.152-116.601-62.408-114.042-56.517,2.4-87.163,67.778-55.325,114.042,1.392.328,1.638-.205,2.504-.967,4.354-3.833,8.294-10.315,13.53-14.443,3.945-3.11,9.065-6.086,13.849-7.63-2.392-7.111-6.296-12.237-6.983-20.418-2.162-25.745,13.214-47.119,40.499-44.578,25.671,2.391,37.051,31.11,29.439,53.581-.832,2.457-5.82,10.222-4.989,11.416,4.785,1.544,9.904,4.519,13.849,7.63,5.234,4.126,9.179,10.616,13.53,14.443.866.762,1.112,1.295,2.504.967ZM224.209,124.35c-3.421-3.652-8.284-4.685-13.149-4.399-22.294,1.314-18.696,43.329,5.59,37.613,13.58-3.196,15.759-24.461,7.56-33.214ZM206.377,178.279c-14.682,1.778-30.429,11.513-36.638,25.119,24.761,19.368,60.914,19.379,85.692,0-8.492-17.764-29.838-27.445-49.054-25.119Z"/>
  <path d="M123.495,270.237l146.72.52c8.374,5.058,8.363,13.438,0,18.487l-144.959.755c-13.055-1.482-14.247-16.49-1.761-19.762Z"/>
  <path d="M123.495,326.237l146.72.52c8.374,5.058,8.363,13.438,0,18.487l-144.959.755c-13.055-1.482-14.247-16.49-1.761-19.762Z"/>
  <path d="M123.495,382.237l146.72.52c8.374,5.058,8.363,13.438,0,18.487l-144.959.755c-13.055-1.482-14.247-16.49-1.761-19.762Z"/>
  <path d="M211.324,438.237c7.908-1.438,48.493-1.47,56.596-.179,11.059,1.761,11.125,18.119,0,19.886-8.141,1.293-48.647,1.261-56.596-.179-11.548-2.093-11.452-17.444,0-19.527Z"/>
  <path d="M80.607,270.194c13.563-1.953,15.32,18.534,2.636,19.79-12.595,1.247-14.902-18.024-2.636-19.79Z"/>
  <path d="M80.607,326.194c13.563-1.953,15.32,18.534,2.636,19.79-12.595,1.247-14.902-18.024-2.636-19.79Z"/>
  <path d="M80.607,382.194c13.563-1.953,15.32,18.534,2.636,19.79-12.595,1.247-14.902-18.024-2.636-19.79Z"/>
  </g>
</svg>
