<?xml version="1.0" encoding="UTF-8"?>
<svg xmlns="http://www.w3.org/2000/svg" version="1.1" viewBox="0 0 512 512">
  <g fill="currentColor">
  <path d="M115.05,297.367c.918-1.493,2.085-1.444,3.607-1.622,9.78-1.148,28.525-.545,38.795.01,31.033,1.677,53.608,18.491,81.357,29.51,22.245,8.834,56.13,1.859,80.754,3.965,18.085,1.546,30.447,16.697,29.776,34.55,1.171.245,2.079-.186,3.151-.5,29.206-8.543,60.824-28.958,90.418-38.231,24.304-7.616,50.048.347,63.106,22.728,1.631,2.795,7.788,14.424,5.471,16.516-1.06.956-6.8,3.803-8.745,4.899-62.143,34.992-130.324,71.095-194.174,102.864-22.742,11.315-37.449,17.565-63.859,12.565-33.306-6.305-69.815-24.186-102.986-32.983h-26.671v-16.735h20.395c1.63,0,9.028,1.102,11.034,1.517,31.208,6.461,65.598,23.901,97.209,31.438,19.542,4.659,32.385,2.089,50.234-6.263l197.642-105.728c-7.142-14.137-24.031-19.233-38.957-16.937l-129.944,54.136h-90.471v-15.689h86.288c5.183,0,13.15-6.74,14.062-12.08,2.148-12.583-5.321-19.354-17.163-20.38-29.62-2.568-57.691,5.656-85.986-6.054-13.116-5.428-51.303-26.332-62.57-26.332h-51.773v-15.166Z"/>
  <path d="M296.168,89.574l68.118,8.529,3.429,9.367c.18,1.679-1.613,2.71-2.685,3.737-6.191,5.935-48.235,39.846-48.996,43.073l12.164,68.099-8.477,5.299-58.76-35.39-60.106,33.001-9.345-6.005,15.47-68.163-50.001-45.821,3.179-11.23,68.91-5.87,28.334-60.569c2.067-2.654,10.357-2.666,12.331,0l26.433,61.942ZM284.735,104.153l-22.199-49.957-22.248,48.884-55.161,5.511,40.444,38.144-12.194,52.839,48.466-25.933,46.691,28.024-10.279-53.661c.674-2.864,33.989-29.323,39.032-34.215,1.025-.994,1.979-1.371,1.583-3.113l-54.134-6.525Z"/>
  <path d="M421.667,135.603l56.692,6.398c5.306,9.895,1.706,12.329-5.057,18.903-10.903,10.599-23.937,19.214-34.491,30.249l10.462,56.534-9.282,6.061-49.344-28.988-47.891,26.328c-2.852,2.506-11.005-4.704-11.127-6.997l12.5-54.401-13.656-14.697,10.113-10.904c1.589-.277,20.874,17.639,21.315,20.375l-9.42,42.303,34.56-19.286,8.272-.014,33.499,20.347-7.119-43.176,32.231-28.98-46.024-5.235c-.779-14.083-9.682-27.867-15.166-40.791-4.083,6.472-14.127,35.648-18.781,38.734-4.589,3.043-14.835,1.972-20.501,2.66l-1.976-13.781,1.681-2.356c3.264-1.039,8.263,1.349,10.886-1.661l25.029-51.323c3.228-1.582,9.485-.004,11.38,3.276l21.215,50.425Z"/>
  <path d="M138.941,81.563l22.644,53.173,16.22,2.089-2.099,16.729-24.924-3.312-17.429-40.626c-2.153-.005-14.085,34.885-18.79,38.745-3.892,3.193-10.14,1.567-14.67,2.064-9.58,1.052-19.197,2.096-28.77,3.141l30.113,28.963c2.786,5.89-9.532,42.462-8.139,44.239l34.556-19.289,8.275-.011,33.499,20.346-7.313-42.314c.496-2.729,16.347-16.46,18.157-16.146l10.053,10.934-11.422,11.342,11.117,55.602c-2.336,1.734-7.494,7.043-10.136,6.33l-48.624-28.805-50.985,26.963-7.89-5.29,12.179-57.603-41.185-37.373,2.525-11.922,57.655-5.314,23.528-50.731,11.855-1.924Z"/>
  <path d="M0,479.878v-15.689h81.581v-172.575H0v-15.689h86.288c2.605,0,10.031,7.232,10.49,10.428l.516,180.474c.642,4.205-7.773,13.05-11.006,13.05H0Z"/>
  <path d="M45.741,427.821c17.05-3.459,18.968,21.13,3.687,22.554-13.459,1.254-16.515-19.952-3.687-22.554Z"/>
  </g>
</svg>
