<?xml version="1.0" encoding="UTF-8"?>
<svg xmlns="http://www.w3.org/2000/svg" version="1.1" viewBox="0 0 512 512">
  <g fill="currentColor">
  <path d="M340.843,512c-7.208-3.008-14.025-8.126-14.98-16.475l.046-184.577c-16.657-5.128-29.094-15.577-32.913-33.197,2.754-37.056-4.02-80.312.02-116.643,3.048-27.405,31.813-48.296,58.81-45.55-2.559-4.237-5.442-8.697-7.028-13.433-4.468-13.348-4.389-55.901-2.835-70.814,1.047-10.051,7.445-20.644,16.157-25.783,11.369-6.707,46.134-5.853,60.154-4.839,14.888,1.077,27.544,11.209,31.137,25.781,2.95,11.965,2.366,56.674-.173,69.177-1.464,7.212-4.633,13.768-8.539,19.91,28.193-2.627,56.135,18.934,58.907,47.451,3.455,35.542-2.462,76.587-.117,112.705-2.214,16.688-15.366,30.834-31.854,34.051l-.845,1.152-.104,184.632c-1.459,8.502-7.642,13.151-15.003,16.452h-110.841ZM435.708,53.656v-21.469c0-6.128-7.626-13.881-13.432-15.526-6.49-1.839-46.586-1.862-52.92.101-4.621,1.433-12.535,9.699-12.535,14.426v15.478c5.797,1.81,13.306-.032,18.654-2.815,4.203-2.188,5.523-5.587,10.79-5.232,5.302.357,9.907,7.869,15.187,10.849,10.347,5.84,22.828,6.328,34.257,4.188ZM435.708,87.108c.567-5.361-.413-11.505,0-16.976-1.389-2.271-2.147-.499-2.496-.499h-18.973c-1.951,0-10.747-2.879-13.162-3.814-5.689-2.204-11.452-5.895-15.937-10.011-8.674,3.9-18.769,8.283-28.312,5.84.373,15.563-2.53,31.884,7.155,45.26,21.883,30.223,67.864,16.717,71.725-19.8ZM446.692,295.31h18.474c7.416,0,18.945-12.848,19.385-20.558l-.357-113.306c-6.821-27.807-31.353-33.476-57.024-30.951-5.298.521-8.689,3.683-13.65,5.323-9.851,3.257-20.7,3.738-30.743,1.225-5.275-1.32-11.458-5.799-15.532-6.437-25.668-4.019-54.149,3.702-59.36,32.386,2.932,35.418-3.897,77.186.003,111.849.814,7.233,11.208,20.468,18.477,20.468h19.472v-109.344c0-.453,2.896-2.852,3.749-3.274,5.248-2.593,11.23,1.999,11.23,7.268v105.349h70.899v-107.346c0-2.176,4.895-5.915,7.471-6.009,2.634-.096,7.508,2.343,7.508,5.01v108.345ZM451.685,310.289h-110.841v184.236c0,.227,3.119,2.496,3.495,2.496h44.436v-155.278c0-2.366,5.018-5.438,7.51-5.382,2.843.064,7.468,3.697,7.468,6.381v154.279h44.436c.376,0,3.495-2.269,3.495-2.496v-184.236Z"/>
  <path d="M135.799,47.003c2.072,2.085,4.407,7.07,4.381,10.098-2.237,32.257,2.806,68.129-.009,99.947-.767,8.668-5.637,13.944-14.479,14.479-31.93-2.199-67.445,2.787-98.94,0-8.092-.716-13.685-5.17-14.489-13.471-3.142-32.452,2.471-69.933.027-102.926,1.072-6.888,5.701-10.856,12.455-11.511,32.764-3.177,70.617,2.501,103.928.023,2.268.164,5.6,1.825,7.125,3.361ZM125.152,58.649H27.292v97.86h97.86V58.649Z"/>
  <path d="M135.799,465.728c-1.525,1.535-4.857,3.196-7.125,3.361-33.311-2.478-71.164,3.2-103.928.023-6.753-.655-11.383-4.623-12.455-11.511,2.443-32.993-3.169-70.474-.027-102.926.804-8.302,6.397-12.755,14.489-13.471,31.495-2.787,67.01,2.199,98.94,0,8.842.536,13.712,5.811,14.479,14.479,2.815,31.819-2.228,67.69.009,99.947.026,3.028-2.31,8.013-4.381,10.098ZM125.152,356.223H27.292v97.86h97.86v-97.86Z"/>
  <path d="M15.659,196.799c2.979-3.281,6.87-4.081,11.092-4.383,32.626-2.338,67.998,1.851,100.92.019,7.773,1.365,11.82,6.766,12.5,14.461,2.784,31.498-2.198,67.008,0,98.94-.151,7.589-5.801,14.1-13.471,14.489-32.445-2.38-68.996,2.995-100.944-.012-8.035-.756-12.996-5.228-13.481-13.481,2.347-32.45-2.992-68.975,0-100.933.308-3.289,1.105-6.59,3.384-9.1ZM125.152,207.436H27.292v97.86h97.86v-97.86Z"/>
  <path d="M260.678,378.91c-1.465,1.472-5.054,2.14-7.159,2.331-28.86,2.622-61.656-2.09-90.943-.026-9.54-.513-11.783-12.657-2.026-15.056l98.976.983c3.806,2.777,4.461,8.443,1.151,11.768Z"/>
  <path d="M260.677,69.911c4.373,4.406,1.361,12.757-5.189,12.725-29.652-2.571-64.937,3.354-93.91,0-10.703-1.239-9.309-14.89,1.021-15,29.273,2.011,62.076-2.672,90.92-.054,2.098.19,5.701.861,7.158,2.329Z"/>
  <path d="M260.678,101.868c4.611,4.633,1.52,12.567-5.19,12.723-29.651-2.571-64.938,3.355-93.909,0-10.849-1.256-8.981-14.521.998-15.027,29.287,2.063,62.083-2.648,90.943-.026,2.104.191,5.694.859,7.159,2.331Z"/>
  <path d="M260.678,410.864c-1.465,1.472-5.054,2.14-7.159,2.331-28.86,2.622-61.656-2.09-90.943-.026-9.979-.507-11.847-13.771-.998-15.027,28.971-3.355,64.259,2.571,93.909,0,6.71.156,9.801,8.09,5.19,12.723Z"/>
  <path d="M161.836,216.659l91.632-.235c9.91.466,13.516,12.069,3.047,15.029h-95.964c-9.374-2.327-7.784-13.164,1.285-14.793Z"/>
  <path d="M158.811,249.582l97.704-.257c11.156,3.552,6.251,15.127-4.059,15.015-28.13-2.033-60.189,2.78-87.845,0-9.66-.971-14.855-8.207-5.799-14.758Z"/>
  <path d="M159.816,430.331l66.628-.151c8.78,1.378,7.029,14.851-1.912,14.938-19.569-1.908-43.856,2.523-62.841-.114-9.09-1.263-10.345-11.552-1.875-14.674Z"/>
  <path d="M156.388,133.822c1.101-1.105,4.534-2.12,6.188-2.304,19.238-2.142,42.293,1.669,61.956.004,8.924.074,10.703,13.56,1.912,14.938-19.304,3.028-45.8-2.171-65.894.113-6.078-.677-8.353-8.545-4.163-12.752Z"/>
  <path d="M158.811,281.537l67.634-.144c8.198,1.286,8.604,13.649-3.946,14.902-12.716,1.269-47.593,1.642-59.809-.077-8.597-1.209-11.929-9.836-3.878-14.681Z"/>
  <path d="M95.918,86.802c6.968-1.542,12.368,4.273,8.681,10.703-6.689,4.772-25.312,28.785-31.337,30.633-3.036.931-4.176.062-6.527-1.591-2.497-1.755-15.175-13.587-16.998-15.95-3.081-3.992-5.476-8.713-.554-12.581,9.436-7.416,18.77,12.124,22.409,11.487,5.797-3.706,18.817-21.482,24.326-22.701Z"/>
  <path d="M96.93,384.335c6.037-1.108,10.963,6.47,7.68,11.752-6.675,4.738-24.21,27.652-30.327,29.585-2.659.84-5.156.914-7.604-.497-1.625-.937-19.544-19.588-19.984-20.975-1.702-5.36,2.367-10.6,7.966-10.028,5.356.547,14.294,14.365,16.931,13.904,5.595-3.574,20.256-22.808,25.339-23.741Z"/>
  <path d="M95.949,235.623c7.855-2.053,11.953,5.659,8.084,12.111-2.383,3.973-20.935,22.041-25.291,25.63-4.261,3.511-6.967,5.887-12.461,2.427-2.125-1.338-19.037-18.657-19.586-20.379-1.883-5.911,2.878-11.21,9.024-10.02,3.66.709,11.325,11.385,15.011,13.95,1.735,0,19.822-22.31,25.219-23.72Z"/>
  </g>
</svg>
